<svg width="136" height="115" viewBox="0 0 136 115" fill="none" xmlns="http://www.w3.org/2000/svg">
<path d="M127.8 57.2H112.6C112.6 26.1 87.5 0.899994 56.5 0.899994C25.8 0.899994 0.800008 25.4 0.200008 56.1C-0.399992 87.5 29.2 114.8 60.7 114.8H64.7C92.5 114.8 129.8 93.1 135.6 66.7C136.5 62.4 133.7 58.3 129.4 57.4C128.9 57.2 128.4 57.2 127.8 57.2ZM33.8 58.6C33.8 62.8 30.4 66.1 26.2 66.1C22 66.1 18.7 62.7 18.7 58.6V46.4C18.7 42.2 22.1 38.9 26.3 38.9C30.5 38.9 33.8 42.3 33.8 46.4V58.6ZM60 58.6C60 62.8 56.6 66.1 52.4 66.1C48.2 66.1 44.9 62.7 44.9 58.6V46.4C44.9 42.2 48.3 38.9 52.5 38.9C56.7 38.9 60 42.3 60 46.4V58.6Z" fill="url(#paint0_linear_1_11)"/>
<defs>
<linearGradient id="paint0_linear_1_11" x1="67.9738" y1="1.15999" x2="67.9738" y2="114.79" gradientUnits="userSpaceOnUse">
<stop stop-color="white"/>
<stop offset="1" stop-color="white" stop-opacity="0.82"/>
</linearGradient>
</defs>
</svg>
